<svg xmlns="http://www.w3.org/2000/svg" viewBox="0 0 1200 900" role="img" aria-labelledby="title desc"><title id="title">Evercare family and support illustration</title><desc id="desc">A warm illustration of a support worker connecting with a family outdoors.</desc><defs><linearGradient id="sky" x1="0" y1="0" x2="1" y2="1"><stop offset="0" stop-color="#dff3fb"/><stop offset="1" stop-color="#f7fbf4"/></linearGradient><linearGradient id="hill" x1="0" y1="0" x2="1" y2="0"><stop offset="0" stop-color="#87c769"/><stop offset="1" stop-color="#43a86d"/></linearGradient><linearGradient id="shirt" x1="0" y1="0" x2="1" y2="1"><stop offset="0" stop-color="#1d80c5"/><stop offset="1" stop-color="#0f5d9c"/></linearGradient><filter id="shadow" x="-20%" y="-20%" width="140%" height="140%"><feDropShadow dx="0" dy="20" stdDeviation="22" flood-color="#17435d" flood-opacity=".18"/></filter></defs><rect width="1200" height="900" rx="70" fill="url(#sky)"/><circle cx="1010" cy="145" r="76" fill="#f7bf4a" opacity=".85"/><path d="M0 585C170 486 330 500 492 565c159 64 304 55 455-30 95-53 179-60 253-35v400H0Z" fill="#b8df91"/><path d="M0 690c192-100 370-99 535-26 165 72 358 60 665-58v294H0Z" fill="url(#hill)"/><g opacity=".55" fill="#fff"><circle cx="133" cy="170" r="34"/><circle cx="175" cy="160" r="48"/><circle cx="230" cy="177" r="35"/><circle cx="720" cy="119" r="28"/><circle cx="756" cy="107" r="44"/><circle cx="804" cy="123" r="30"/></g><g filter="url(#shadow)"><rect x="178" y="230" width="844" height="480" rx="48" fill="#fff"/><rect x="212" y="264" width="776" height="412" rx="34" fill="#edf8fb"/></g><g transform="translate(250 310)"><ellipse cx="130" cy="316" rx="110" ry="27" fill="#a4c9d8" opacity=".35"/><circle cx="125" cy="76" r="55" fill="#c78358"/><path d="M71 70c9-54 91-73 116-19 8 17 5 32 0 44-24-21-57-29-106-11Z" fill="#273a46"/><path d="M66 153c18-28 40-40 64-40 30 0 56 15 75 50l38 79-65 29-29-58v105H73V211l-34 58-62-34Z" fill="url(#shirt)"/><path d="M39 235c55 35 111 37 167 7" fill="none" stroke="#fff" stroke-width="8" stroke-linecap="round" opacity=".9"/><circle cx="126" cy="181" r="28" fill="#fff" opacity=".95"/><path d="M111 181l11 11 22-27" fill="none" stroke="#39a867" stroke-width="8" stroke-linecap="round" stroke-linejoin="round"/></g><g transform="translate(585 330)"><ellipse cx="150" cy="300" rx="145" ry="30" fill="#a4c9d8" opacity=".35"/><circle cx="95" cy="77" r="49" fill="#d59a70"/><path d="M51 70c4-47 61-66 94-29 10 12 14 28 11 43-23-12-53-18-97-8Z" fill="#6b4432"/><path d="M38 154c12-30 34-46 63-46 34 0 57 18 71 55l29 84-64 21-23-65v97H39v-94l-24 58-60-25Z" fill="#f0a43b"/><circle cx="266" cy="113" r="39" fill="#b66f4e"/><path d="M232 107c2-40 53-55 79-25 7 9 10 21 8 33-20-11-44-15-80-7Z" fill="#2f2d2b"/><path d="M217 175c13-25 30-37 52-37 27 0 47 15 60 46l22 57-51 19-17-43v78h-58v-73l-18 41-48-22Z" fill="#7fbf64"/><path d="M167 188c32-26 62-38 90-34" fill="none" stroke="#d59a70" stroke-width="20" stroke-linecap="round"/></g><g transform="translate(848 225)"><rect width="120" height="150" rx="24" fill="#fff" stroke="#d2e8ee" stroke-width="6"/><path d="M60 30c16 0 29 12 29 28 0 24-29 48-29 48S31 82 31 58c0-16 13-28 29-28Z" fill="#e8f6ec"/><path d="M60 49c7-11 20-13 28-4 10 12 1 30-28 49-29-19-38-37-28-49 8-9 21-7 28 4Z" fill="#43a86d"/></g></svg>