<svg xmlns="http://www.w3.org/2000/svg" viewBox="0 0 3200 600"><defs><linearGradient id="g1" x1="0" y1="0" x2="1" y2="1"><stop stop-color="#e8f5fb"/><stop offset="1" stop-color="#cae7f4"/></linearGradient><linearGradient id="g2" x1="0" y1="0" x2="1" y2="1"><stop stop-color="#edf8ec"/><stop offset="1" stop-color="#cce8bf"/></linearGradient><linearGradient id="g3" x1="0" y1="0" x2="1" y2="1"><stop stop-color="#fff5e2"/><stop offset="1" stop-color="#f5d9a4"/></linearGradient><linearGradient id="g4" x1="0" y1="0" x2="1" y2="1"><stop stop-color="#f0eefb"/><stop offset="1" stop-color="#d9d0f1"/></linearGradient><linearGradient id="g5" x1="0" y1="0" x2="1" y2="1"><stop stop-color="#eaf6f4"/><stop offset="1" stop-color="#bde0db"/></linearGradient><linearGradient id="g6" x1="0" y1="0" x2="1" y2="1"><stop stop-color="#fff0ec"/><stop offset="1" stop-color="#f3c7ba"/></linearGradient><linearGradient id="g7" x1="0" y1="0" x2="1" y2="1"><stop stop-color="#eef5ff"/><stop offset="1" stop-color="#c9dcf5"/></linearGradient><linearGradient id="g8" x1="0" y1="0" x2="1" y2="1"><stop stop-color="#f8f4ea"/><stop offset="1" stop-color="#e7ddbf"/></linearGradient><filter id="s" x="-20%" y="-20%" width="140%" height="140%"><feDropShadow dx="0" dy="12" stdDeviation="12" flood-color="#143d55" flood-opacity=".16"/></filter></defs><!-- 1 Respite --><g transform="translate(0)"><rect width="400" height="600" fill="url(#g1)"/><circle cx="318" cy="95" r="55" fill="#f8bd50" opacity=".75"/><g filter="url(#s)"><rect x="48" y="280" width="304" height="190" rx="26" fill="#fff"/></g><circle cx="145" cy="225" r="55" fill="#bf7c56"/><path d="M92 220c5-55 80-76 113-28 9 13 12 29 8 45-32-17-68-21-113-7Z" fill="#39404b"/><path d="M82 315c20-54 50-80 88-80 43 0 76 31 92 93l-50 21-19-55v110H91V302Z" fill="#1872b7"/><circle cx="273" cy="300" r="37" fill="#d49b70"/><path d="M239 299c4-39 54-54 79-24 7 9 10 20 7 33-22-10-48-13-80-4Z" fill="#6e4632"/><path d="M227 355c12-32 34-49 62-49 30 0 52 19 66 55l-46 18-18-43v74h-67Z" fill="#6fb85e"/><path d="M188 332c28-25 56-35 83-31" fill="none" stroke="#bf7c56" stroke-width="18" stroke-linecap="round"/></g><!-- 2 Community inclusion --><g transform="translate(400)"><rect width="400" height="600" fill="url(#g2)"/><path d="M0 405c110-72 212-76 400-12v207H0Z" fill="#75b861"/><path d="M0 455c120-55 230-51 400 3v142H0Z" fill="#4d9868"/><circle cx="90" cy="132" r="45" fill="#f8bd50"/><g transform="translate(135 170)"><circle cx="48" cy="45" r="40" fill="#c8845c"/><path d="M13 44c5-38 52-55 80-27 8 8 12 19 12 31-25-10-54-11-87 3Z" fill="#263d4a"/><path d="M7 118c10-43 35-64 74-64 43 0 72 26 83 77l-48 17-14-48v128H20V111Z" fill="#176aa9"/></g><g transform="translate(230 230)"><circle cx="50" cy="42" r="36" fill="#d19a73"/><path d="M17 40c2-35 48-48 73-23 8 8 11 18 10 29-24-9-50-10-78 1Z" fill="#815236"/><path d="M10 105c11-36 33-53 65-53 36 0 59 22 70 65l-42 15-13-40v98H19V98Z" fill="#e69338"/></g><path d="M186 310c28 7 55 2 79-16" fill="none" stroke="#c8845c" stroke-width="16" stroke-linecap="round"/><circle cx="330" cy="365" r="54" fill="#d8edf7" stroke="#2874a6" stroke-width="10"/><circle cx="330" cy="365" r="12" fill="#2874a6"/><path d="M330 311v108M276 365h108" stroke="#2874a6" stroke-width="8" opacity=".7"/></g><!-- 3 Supported living --><g transform="translate(800)"><rect width="400" height="600" fill="url(#g3)"/><path d="M66 250 200 130l134 120v230H66Z" fill="#fff" filter="url(#s)"/><path d="M40 260 200 115l160 145" fill="none" stroke="#1974b2" stroke-width="24" stroke-linecap="round" stroke-linejoin="round"/><rect x="166" y="335" width="72" height="145" rx="8" fill="#8dc36a"/><rect x="95" y="285" width="65" height="65" rx="8" fill="#dff0f7" stroke="#5d9dc0" stroke-width="7"/><rect x="240" y="285" width="65" height="65" rx="8" fill="#dff0f7" stroke="#5d9dc0" stroke-width="7"/><circle cx="220" cy="405" r="6" fill="#fff"/><g transform="translate(105 360)"><circle cx="42" cy="38" r="34" fill="#c9855b"/><path d="M13 38c4-32 45-47 69-24 7 7 10 16 10 26-21-8-45-8-73 2Z" fill="#3f3c3a"/><path d="M8 98c9-34 29-50 59-50 34 0 56 21 66 61l-38 14-13-36v93H18V92Z" fill="#e99637"/></g></g><!-- 4 Coordination --><g transform="translate(1200)"><rect width="400" height="600" fill="url(#g4)"/><g filter="url(#s)"><rect x="48" y="135" width="304" height="315" rx="28" fill="#fff"/></g><rect x="90" y="190" width="220" height="22" rx="11" fill="#c6bce8"/><rect x="90" y="240" width="155" height="16" rx="8" fill="#e3def4"/><rect x="90" y="278" width="205" height="16" rx="8" fill="#e3def4"/><rect x="90" y="316" width="178" height="16" rx="8" fill="#e3def4"/><circle cx="96" cy="390" r="34" fill="#1d78b6"/><path d="m82 390 10 10 20-25" fill="none" stroke="#fff" stroke-width="7" stroke-linecap="round" stroke-linejoin="round"/><g transform="translate(248 315)"><circle cx="44" cy="38" r="34" fill="#c78359"/><path d="M14 36c4-33 47-47 70-22 7 7 10 16 9 26-22-8-46-8-74 2Z" fill="#4b3430"/><path d="M7 100c10-36 31-52 62-52 34 0 57 22 66 62l-40 14-13-38v94H17V94Z" fill="#74b75e"/></g><path d="M260 377c-38 13-68 8-89-15" fill="none" stroke="#c78359" stroke-width="15" stroke-linecap="round"/></g><!-- 5 In-home --><g transform="translate(1600)"><rect width="400" height="600" fill="url(#g5)"/><rect x="55" y="250" width="290" height="205" rx="26" fill="#fff" filter="url(#s)"/><rect x="86" y="313" width="110" height="105" rx="16" fill="#d9eef0"/><path d="M215 285h95v133h-95Z" fill="#f4f8f6" stroke="#9cc8c2" stroke-width="7"/><rect x="235" y="314" width="55" height="50" rx="8" fill="#c5e2dd"/><g transform="translate(85 170)"><circle cx="48" cy="42" r="38" fill="#c68159"/><path d="M13 40c3-36 50-52 76-25 8 8 11 19 10 30-23-10-50-10-80 2Z" fill="#2f3e45"/><path d="M7 110c12-40 35-59 69-59 39 0 65 25 76 72l-46 16-15-43v107H17V103Z" fill="#1975b8"/></g><g transform="translate(245 185)"><circle cx="42" cy="37" r="34" fill="#d6a47c"/><path d="M10 37c3-34 45-48 70-23 7 8 10 17 9 28-22-9-46-10-74 1Z" fill="#77706b"/><path d="M5 97c11-34 31-50 60-50 34 0 56 22 65 60l-38 14-13-37v87H15V91Z" fill="#f0a13a"/></g><path d="M183 304c37 15 72 13 105-9" fill="none" stroke="#c68159" stroke-width="16" stroke-linecap="round"/></g><!-- 6 Complex care --><g transform="translate(2000)"><rect width="400" height="600" fill="url(#g6)"/><g filter="url(#s)"><circle cx="200" cy="278" r="145" fill="#fff"/></g><path d="M200 172v212M94 278h212" stroke="#e76e58" stroke-width="46" stroke-linecap="round"/><circle cx="305" cy="445" r="58" fill="#1b75b4"/><path d="m278 446 18 18 36-46" fill="none" stroke="#fff" stroke-width="12" stroke-linecap="round" stroke-linejoin="round"/><g transform="translate(34 345)"><circle cx="48" cy="40" r="36" fill="#c9845c"/><path d="M13 39c4-34 49-49 74-24 8 8 11 18 10 29-23-9-48-10-78 2Z" fill="#313c42"/><path d="M7 102c11-37 33-55 65-55 36 0 60 23 70 65l-43 15-13-39v94H17V96Z" fill="#74b75e"/></g></g><!-- 7 Senior --><g transform="translate(2400)"><rect width="400" height="600" fill="url(#g7)"/><path d="M0 445c130-78 260-84 400-22v177H0Z" fill="#a9c8ed"/><g transform="translate(64 165)"><circle cx="58" cy="50" r="44" fill="#d1a078"/><path d="M16 48c4-42 55-60 86-29 9 10 13 22 12 36-26-11-57-12-92 2Z" fill="#e1e1df"/><path d="M10 128c13-45 39-67 78-67 43 0 72 28 84 80l-51 18-17-48v125H22V120Z" fill="#f0a13a"/></g><g transform="translate(215 200)"><circle cx="50" cy="43" r="39" fill="#c78259"/><path d="M14 42c4-38 53-54 81-26 8 9 12 20 11 32-25-10-53-11-85 2Z" fill="#2d3d46"/><path d="M8 112c12-41 36-60 71-60 40 0 66 25 77 73l-47 17-15-44v111H18V105Z" fill="#1973b5"/></g><path d="M183 337c38 6 70-5 95-34" fill="none" stroke="#c78259" stroke-width="17" stroke-linecap="round"/><path d="M105 418c26 13 53 16 81 8" fill="none" stroke="#586f84" stroke-width="12" stroke-linecap="round"/></g><!-- 8 Homemaking --><g transform="translate(2800)"><rect width="400" height="600" fill="url(#g8)"/><g filter="url(#s)"><rect x="48" y="168" width="304" height="275" rx="28" fill="#fff"/></g><rect x="78" y="285" width="244" height="115" rx="18" fill="#e8e1cc"/><rect x="103" y="310" width="78" height="65" rx="10" fill="#fff"/><rect x="196" y="310" width="101" height="65" rx="10" fill="#fff"/><path d="M105 215h190" stroke="#d4c59e" stroke-width="16" stroke-linecap="round"/><path d="M128 190v50M200 190v50M272 190v50" stroke="#d4c59e" stroke-width="12" stroke-linecap="round"/><g transform="translate(128 365)"><circle cx="50" cy="42" r="38" fill="#c8835a"/><path d="M15 41c3-37 51-52 78-25 8 8 12 19 11 31-24-10-52-11-83 2Z" fill="#303e46"/><path d="M8 111c12-40 35-59 70-59 39 0 65 25 76 72l-46 16-15-43v106H18V104Z" fill="#1b75b4"/></g><path d="M222 398c32-2 60-13 83-34" fill="none" stroke="#c8835a" stroke-width="16" stroke-linecap="round"/><circle cx="304" cy="350" r="18" fill="#73b95e"/></g></svg>